{"title":"Sea of Dust 2008 DVDRip Xvid BigPerm LKRG","uid":6323828,"size":982885122,"categoryP":"video","categoryS":"movies","magnet":"?xt=urn:btih:3728a7353fcce86a1ccf5a9e7b81d3186c18ce08&amp;dn=Sea+of+Dust+2008+DVDRip+Xvid+BigPerm+LKRG&amp;tr=udp%3A%2F%2Ftracker.openbittorrent.com%3A80&amp;tr=udp%3A%2F%2Fopen.demonii.com%3A1337&amp;tr=udp%3A%2F%2Ftracker.coppersurfer.tk%3A6969&amp;tr=udp%3A%2F%2Fexodus.desync.com%3A6969","seeders":1,"leechers":0,"uploader":"qwersd","files":-1,"time":1302998434,"description":"Plot\n\nFirst time director/screenwriter Scott Bunt pays tribute to the classic Hammer Studio films of yesteryear\nand the stylish shockers of director Mario Bava with this gruesome tale of an oppressive evil that washes\nover a small village of innocents....\n\nRuntime ..........: 1h 29mn\nFile Size ........: 937 MiB\nResolution .......: 704x396\nIMDb URL .........: http://www.imdb.com/title/tt0471032/\nLanguage .........: English\nVideo\nID : 0\nFormat : MPEG-4 Visual\nFormat profile : Advanced Simple@L5\nFormat settings, BVOP : Yes\nFormat settings, QPel : No\nFormat settings, GMC : No warppoints\nFormat settings, Matrix : Default (H.263)\nCodec ID : XVID\nCodec ID/Hint : XviD\nDuration : 1h 29mn\nBit rate : 1 071 Kbps\nWidth : 704 pixels\nHeight : 396 pixels\nDisplay aspect ratio : 16:9\nFrame rate : 29.970 fps\nColor space : YUV\nChroma subsampling : 4:2:0\nBit depth : 8 bits\nScan type : Progressive\nCompression mode : Lossy\nBits/(Pixel*Frame) : 0.128\nStream size : 687 MiB (73%)\nWriting library : XviD 1.2.1 (UTC 2008-12-04)\n\nAudio\nID : 1\nFormat : AC-3\nFormat/Info : Audio Coding 3\nMode extension : CM (complete main)\nCodec ID : 2000\nDuration : 1h 29mn\nBit rate mode : Constant\nBit rate : 384 Kbps\nChannel(s) : 6 channels\nChannel positions : Front: L C R, Side: L R, LFE\nSampling rate : 48.0 KHz\nBit depth : 16 bits\nCompression mode : Lossy\nVideo delay : 33ms\nStream size : 246 MiB (26%)\nAlignment : Split accross interleaves\nInterleave, duration : 500 ms (14.98 video frames)\nInterleave, preload duration : 500 ms\nLanguage : English\n\nScreens:\n &lt;a href=&quot;\nhttp://leetleech.org/images/23603575245769984251.png&quot; rel=&quot;nofollow&quot; target=&quot;_NEW&quot;&gt;\nhttp://leetleech.org/images/23603575245769984251.png&lt;/a&gt; &lt;a href=&quot;\nhttp://leetleech.org/images/68029223366140326394.png&quot; rel=&quot;nofollow&quot; target=&quot;_NEW&quot;&gt;\nhttp://leetleech.org/images/68029223366140326394.png&lt;/a&gt; &lt;a href=&quot;\nhttp://leetleech.org/images/00116441535357073905.png&quot; rel=&quot;nofollow&quot; target=&quot;_NEW&quot;&gt;\nhttp://leetleech.org/images/00116441535357073905.png&lt;/a&gt;\n","torrent":{"xt":"urn:btih:3728a7353fcce86a1ccf5a9e7b81d3186c18ce08","amp;dn":"Sea+of+Dust+2008+DVDRip+Xvid+BigPerm+LKRG","amp;tr":["udp%3A%2F%2Ftracker.openbittorrent.com%3A80","udp%3A%2F%2Fopen.demonii.com%3A1337","udp%3A%2F%2Ftracker.coppersurfer.tk%3A6969","udp%3A%2F%2Fexodus.desync.com%3A6969"],"infoHash":"3728a7353fcce86a1ccf5a9e7b81d3186c18ce08","infoHashBuffer":{"type":"Buffer","data":[55,40,167,53,63,204,232,106,28,207,90,158,123,129,211,24,108,24,206,8]},"announce":[],"urlList":[]}}